<svg xmlns="http://www.w3.org/2000/svg" xmlns:xlink="http://www.w3.org/1999/xlink" id="Layer_1" enable-background="new 0 0 100 100" viewBox="0 0 100 100"><defs id="defs114"><linearGradient id="linearGradient4268"><stop id="stop4270" offset="0" stop-color="#000092"/><stop id="stop4272" offset="1" stop-color="#ff00f3"/></linearGradient><linearGradient id="linearGradient4274" x1="19.4" x2="78" y1="51.351" y2="51.351" gradientUnits="userSpaceOnUse" xlink:href="#linearGradient4268"/></defs><symbol id="navbar_x5F_icon_x5F_back_1_" viewBox="-1 -24 25 24"><g id="g6" opacity=".9"><g id="g10"><g id="g12"><path id="path14" fill="none" stroke="#fff" stroke-miterlimit="10" stroke-width="2" d="M18-19c0-0.4,0-0.5-0.3-0.3l-12,7c-0.3,0.2-0.2,0.5,0.1,0.6l11.9,7C18-4.5,18-4.7,18-5V-19z"/></g></g></g><rect id="rect16" width="24" height="24" y="-24" fill="none"/><rect id="rect18" width="25" height="24" x="-1" y="-24" fill="none" display="none"/></symbol><symbol id="navbar_x5F_icon_x5F_home_1_" viewBox="0 -24 24 24"><g id="g21" opacity=".9"><g id="XMLID_809_"><circle id="XMLID_814_" cx="12" cy="-12" r="6.9" fill="none" stroke="#fff" stroke-miterlimit="10" stroke-width="1.803"/></g></g><rect id="rect26" width="24" height="24" y="-24" fill="none"/><rect id="rect28" width="24" height="23" y="-24" fill="none" display="none"/></symbol><symbol id="navbar_x5F_icon_x5F_recents_1_" viewBox="0 -24 24 24"><g id="g31" opacity=".9"><g id="g35"><g id="g37"><path id="path39" fill="none" stroke="#fff" stroke-miterlimit="10" stroke-width="2" d="M19-5.7C19-5.4,18.6-5,18.2-5H5.8C5.4-5,5-5.4,5-5.7v-12.6C5-18.6,5.4-19,5.8-19h12.4      c0.4,0,0.8,0.4,0.8,0.7V-5.7z"/></g></g></g><rect id="rect41" width="24" height="24" y="-24" fill="none"/><rect id="rect43" width="24" height="23" y="-24" fill="none" display="none"/></symbol><symbol id="sysbar_x5F_status_2" viewBox="0 -24 360 24"><use id="XMLID_495_" width="360" height="24" y="-24" overflow="visible" xlink:href="#sysbar_x5F_status_x5F_used_x5F_light"/></symbol><symbol id="sysbar_x5F_status_x5F_used_x5F_light" viewBox="0 -24 360 24"><rect id="rect48" width="360" height="24" y="-24" fill="#010101" fill-opacity="0"/><g id="g50"><g id="g52" opacity=".9"><rect id="rect54" width="40" height="16" x="312" y="-21" fill="none"/></g><g id="g58"><g id="g60" opacity=".9"><path id="path62" fill="#fff" d="M266-19l8.8,10.9C274.5-7.8,271.1-5,266-5s-8.5-2.8-8.8-3.1L266-19L266-19L266-19L266-19L266-19z" opacity=".9"/></g><rect id="rect64" width="16" height="16" x="258" y="-20" fill="none"/></g><g id="g66"><polygon id="polygon68" fill="#fff" points="277 -19 291 -19 291 -5" opacity=".9"/><rect id="rect70" width="16" height="16" x="276" y="-20" fill="none"/></g><g id="g72"><rect id="rect74" width="16" height="16" x="296" y="-20" fill="none"/><path id="path76" fill="#fff" d="M306-6v1h-3v-1h-3v-13h9v13H306z" opacity=".9"/></g></g></symbol><path id="path98" fill="url(#linearGradient4274)" d="M 50.5 22.300781 C 49.4 22.300781 48.5 23.200781 48.5 24.300781 L 48.5 25.300781 L 48 25.300781 C 47.7 25.300781 47.5 25.500781 47.5 25.800781 L 47.5 27.800781 L 47.5 27.900391 L 44 29.599609 C 42.6 30.399609 41.700391 31.799219 41.400391 33.199219 C 41.200391 34.499219 41.500781 35.700781 42.300781 36.800781 L 42.300781 38.300781 L 40.900391 38.300781 C 40.700391 38.300781 40.5 38.399609 40.5 38.599609 C 40.4 38.799609 40.4 38.999609 40.5 39.099609 L 42.300781 41.800781 L 42.300781 45.599609 L 40.599609 48.199219 L 34.300781 48.199219 L 34.300781 47.699219 C 34.300781 47.399219 34.100781 47.199219 33.800781 47.199219 L 33.300781 47.199219 L 33.300781 45 L 33.400391 44.900391 C 34.000391 44.200391 34.199609 43.200781 34.099609 42.300781 C 33.999609 41.400781 33.500781 40.5 32.800781 40 L 28.400391 36.5 L 28.400391 36.199219 C 28.700391 35.999219 29 35.700781 29 35.300781 C 29 34.700781 28.500391 34.199219 27.900391 34.199219 C 27.300391 34.199219 26.800781 34.700781 26.800781 35.300781 C 26.800781 35.700781 27.000391 36.099219 27.400391 36.199219 L 27.400391 36.5 L 23 40.099609 C 22.3 40.699609 21.799219 41.500391 21.699219 42.400391 C 21.599219 43.300391 21.800391 44.200391 22.400391 44.900391 L 22.400391 48.400391 L 21.900391 48.400391 C 21.600391 48.400391 21.400391 48.600391 21.400391 48.900391 L 21.400391 79.400391 L 19.900391 79.400391 C 19.600391 79.400391 19.400391 79.600391 19.400391 79.900391 C 19.400391 80.200391 19.600391 80.400391 19.900391 80.400391 L 21.900391 80.400391 L 29.900391 80.400391 L 30.400391 80.400391 L 31.400391 80.400391 L 34.5 80.400391 L 36.800781 80.400391 L 40.900391 80.400391 L 43.199219 80.400391 L 47.300781 80.400391 L 53.300781 80.400391 L 57.400391 80.400391 L 59.800781 80.400391 L 63.900391 80.400391 L 66.300781 80.400391 L 68.300781 80.400391 L 70.300781 80.400391 L 70.400391 80.400391 L 78.800781 80.400391 L 80.699219 80.400391 C 80.999219 80.400391 81.199219 80.200391 81.199219 79.900391 C 81.199219 79.600391 80.999219 79.300781 80.699219 79.300781 L 79.300781 79.300781 L 79.300781 48.800781 C 79.300781 48.500781 79.100781 48.300781 78.800781 48.300781 L 78.300781 48.300781 L 78.300781 45.099609 L 78.400391 45 C 79.000391 44.3 79.199609 43.300391 79.099609 42.400391 C 78.999609 41.500391 78.500781 40.599609 77.800781 40.099609 L 73.400391 36.599609 L 73.400391 36.300781 C 73.700391 36.100781 74 35.800391 74 35.400391 C 74 34.800391 73.500391 34.300781 72.900391 34.300781 C 72.300391 34.300781 71.800781 34.800391 71.800781 35.400391 C 71.800781 35.800391 72.000391 36.200781 72.400391 36.300781 L 72.400391 36.599609 L 68 40.099609 C 67.3 40.699609 66.799219 41.500391 66.699219 42.400391 C 66.599219 43.300391 66.800391 44.200391 67.400391 44.900391 L 67.400391 47.400391 L 66.900391 47.400391 C 66.600391 47.400391 66.400391 47.600391 66.400391 47.900391 L 66.400391 48.400391 L 60.199219 48.400391 L 58.400391 45.699219 L 58.400391 42.099609 L 60.400391 39.099609 C 60.500391 38.899609 60.500391 38.699609 60.400391 38.599609 C 60.300391 38.399609 60.1 38.300781 60 38.300781 L 58.400391 38.300781 L 58.400391 37.099609 L 58.5 37 C 59.4 35.8 59.700391 34.300391 59.400391 32.900391 C 59.100391 31.500391 58.200391 30.299609 56.900391 29.599609 L 53.5 27.800781 L 53.5 25.800781 C 53.5 25.500781 53.3 25.300781 53 25.300781 L 52.5 25.300781 L 52.5 24.300781 C 52.5 23.200781 51.6 22.300781 50.5 22.300781 z M 50.300781 23.300781 C 50.800781 23.300781 51.300781 23.700781 51.300781 24.300781 L 51.300781 25.300781 L 49.300781 25.300781 L 49.300781 24.300781 C 49.300781 23.800781 49.800781 23.300781 50.300781 23.300781 z M 48.300781 26.300781 L 52.300781 26.300781 L 52.300781 27.300781 L 48.300781 27.300781 L 48.300781 26.300781 z M 48.599609 28.300781 L 52.099609 28.300781 L 56.199219 30.5 C 57.199219 31.1 57.999219 31.999609 58.199219 33.099609 C 58.399219 34.199609 58.2 35.300781 57.5 36.300781 L 52.199219 36.300781 L 52.199219 35.199219 C 52.199219 34.299219 51.8 33.599609 51 33.099609 L 50.400391 32.699219 C 50.200391 32.599219 50.000391 32.599219 49.900391 32.699219 L 49.300781 33.099609 C 48.600781 33.599609 48.199219 34.299219 48.199219 35.199219 L 48.199219 36.300781 L 43 36.300781 C 42.5 35.400781 42.200391 34.400391 42.400391 33.400391 C 42.600391 32.200391 43.4 31.1 44.5 30.5 L 48.599609 28.300781 z M 50.300781 33.699219 L 50.599609 33.900391 C 50.999609 34.200391 51.300781 34.599219 51.300781 35.199219 L 51.300781 36.300781 L 49.300781 36.300781 L 49.300781 35.199219 C 49.300781 34.699219 49.6 34.200391 50 33.900391 L 50.300781 33.699219 z M 43.300781 37.300781 L 57.300781 37.300781 L 57.300781 38.300781 L 43.300781 38.300781 L 43.300781 37.300781 z M 27.800781 37.400391 L 32.099609 40.800781 C 32.599609 41.200781 33 41.8 33 42.5 C 33.1 43.2 32.9 43.800781 32.5 44.300781 L 23 44.300781 C 22.7 43.800781 22.599609 43.2 22.599609 42.5 C 22.699609 41.8 23 41.200781 23.5 40.800781 L 27.800781 37.400391 z M 72.800781 37.400391 L 77.099609 40.800781 C 77.599609 41.200781 78 41.8 78 42.5 C 78.1 43.2 77.9 43.800781 77.5 44.300781 L 68 44.300781 C 67.7 43.800781 67.599609 43.2 67.599609 42.5 C 67.699609 41.8 68 41.200781 68.5 40.800781 L 72.800781 37.400391 z M 41.800781 39.300781 L 42.800781 39.300781 L 43.599609 39.300781 L 44.900391 41.300781 L 43.099609 41.300781 L 41.800781 39.300781 z M 44.900391 39.300781 L 56 39.300781 L 54.699219 41.300781 L 46.199219 41.300781 L 44.900391 39.300781 z M 57.199219 39.300781 L 57.800781 39.300781 L 59 39.300781 L 57.599609 41.300781 L 55.900391 41.300781 L 57.199219 39.300781 z M 43.300781 42.300781 L 45.400391 42.300781 L 45.300781 45.300781 L 43.300781 45.300781 L 43.300781 42.300781 z M 55.5 42.300781 L 57.300781 42.300781 L 57.300781 45.300781 L 55.400391 45.300781 L 55.5 42.300781 z M 46.400391 42.400391 L 54.5 42.400391 L 54.400391 45.400391 L 52.300781 45.400391 L 52.199219 45.400391 L 50.5 44.400391 C 50.3 44.300391 50.2 44.300391 50 44.400391 L 48.400391 45.400391 L 46.300781 45.400391 L 46.400391 42.400391 z M 23.300781 45.300781 L 32.300781 45.300781 L 32.300781 47.300781 L 30.800781 47.300781 C 30.500781 47.300781 30.300781 47.500781 30.300781 47.800781 L 30.300781 48.300781 L 27.300781 48.300781 L 23.300781 48.300781 L 23.300781 45.300781 z M 68.300781 45.300781 L 77.300781 45.300781 L 77.300781 48.300781 L 73.300781 48.300781 L 70.300781 48.300781 L 70.300781 47.800781 C 70.300781 47.500781 70.100781 47.300781 69.800781 47.300781 L 68.300781 47.300781 L 68.300781 45.300781 z M 50.300781 45.400391 L 53.300781 47.099609 L 53.300781 51.300781 L 47.300781 51.300781 L 47.300781 47.099609 L 50.300781 45.400391 z M 43.099609 46.300781 L 44.900391 46.300781 L 43.599609 48.300781 L 41.800781 48.300781 L 43.099609 46.300781 z M 46.099609 46.300781 L 46.699219 46.300781 L 46.599609 46.400391 C 46.399609 46.500391 46.300781 46.700781 46.300781 46.800781 L 46.300781 48.300781 L 46.099609 48.300781 L 44.800781 48.300781 L 46.099609 46.300781 z M 53.900391 46.300781 L 54.599609 46.300781 L 55.900391 48.300781 L 54.5 48.300781 L 54.300781 48.300781 L 54.300781 46.800781 C 54.300781 46.600781 54.2 46.500391 54 46.400391 L 53.900391 46.300781 z M 55.900391 46.300781 L 57.599609 46.300781 L 59 48.300781 L 57.199219 48.300781 L 55.900391 46.300781 z M 31.300781 48.300781 L 33.300781 48.300781 L 33.300781 51.300781 L 31.300781 51.300781 L 31.300781 48.300781 z M 67.300781 48.300781 L 69.300781 48.300781 L 69.300781 51.300781 L 67.300781 51.300781 L 67.300781 48.300781 z M 22.300781 49.300781 L 22.800781 49.300781 L 27.300781 49.300781 L 30.300781 49.300781 L 30.300781 51.300781 L 29.900391 51.300781 C 29.800391 51.300781 29.6 51.400391 29.5 51.400391 L 26.5 54.400391 C 26.4 54.500391 26.300391 54.800391 26.400391 54.900391 C 26.500391 55.000391 26.700391 55.199219 26.900391 55.199219 L 28.300781 55.199219 L 28.300781 57.699219 C 28.300781 57.999219 28.500781 58.199219 28.800781 58.199219 L 30.300781 58.199219 L 30.300781 79.199219 L 29.800781 79.199219 L 29.800781 79.300781 L 22.300781 79.300781 L 22.300781 49.300781 z M 34.400391 49.300781 L 40.900391 49.300781 L 46.099609 49.300781 L 46.300781 49.300781 L 46.300781 51.300781 L 34.400391 51.300781 L 34.400391 49.300781 z M 54.300781 49.300781 L 54.599609 49.300781 L 59.900391 49.300781 L 66.300781 49.300781 L 66.300781 51.300781 L 54.300781 51.300781 L 54.300781 49.300781 z M 70.300781 49.400391 L 73.300781 49.400391 L 77.800781 49.400391 L 78.300781 49.400391 L 78.300781 79.400391 L 70.400391 79.400391 L 70.400391 79.300781 L 70.400391 58.300781 L 71.800781 58.300781 C 72.100781 58.300781 72.300781 58.100781 72.300781 57.800781 L 72.300781 55.300781 L 73.900391 55.300781 C 74.100391 55.300781 74.300391 55.2 74.400391 55 C 74.500391 54.8 74.400781 54.6 74.300781 54.5 L 71.300781 51.5 C 71.200781 51.4 71.100391 51.400391 70.900391 51.400391 L 70.300781 51.400391 L 70.300781 49.400391 z M 30.099609 52.300781 L 30.800781 52.300781 L 33.800781 52.300781 L 33.900391 52.300781 L 46.800781 52.300781 L 53.800781 52.300781 L 66.800781 52.300781 L 69.800781 52.300781 L 70.699219 52.300781 L 72.699219 54.300781 L 71.800781 54.300781 L 28.800781 54.300781 L 28.099609 54.300781 L 30.099609 52.300781 z M 29.400391 55.300781 L 71.400391 55.300781 L 71.400391 57.300781 L 70.5 57.300781 L 66.800781 57.300781 L 66.300781 57.300781 L 63.900391 57.300781 L 63.400391 57.300781 L 60.300781 57.300781 L 59.800781 57.300781 L 57.400391 57.300781 L 56.800781 57.300781 L 53.800781 57.300781 L 53.300781 57.300781 L 47.300781 57.300781 L 46.800781 57.300781 L 43.699219 57.300781 L 43.199219 57.300781 L 40.900391 57.300781 L 40.400391 57.300781 L 37.300781 57.300781 L 36.800781 57.300781 L 34.5 57.300781 L 34 57.300781 L 30.400391 57.300781 L 29.400391 57.300781 L 29.400391 55.300781 z M 31.300781 58.300781 L 33.400391 58.300781 L 33.400391 61.800781 L 33.400391 66.800781 L 33.400391 70.800781 L 33.400391 79.300781 L 31.300781 79.300781 L 31.300781 58.300781 z M 34.400391 58.300781 L 36.699219 58.300781 L 36.699219 61.300781 L 34.400391 61.300781 L 34.400391 58.300781 z M 37.699219 58.300781 L 39.800781 58.300781 L 39.800781 79.300781 L 37.699219 79.300781 L 37.699219 70.800781 L 37.699219 66.800781 L 37.699219 61.800781 L 37.699219 58.300781 z M 40.900391 58.300781 L 43.199219 58.300781 L 43.199219 61.300781 L 40.900391 61.300781 L 40.900391 58.300781 z M 44.199219 58.300781 L 46.300781 58.300781 L 46.300781 79.300781 L 44.199219 79.300781 L 44.199219 66.800781 L 44.199219 58.300781 z M 47.300781 58.300781 L 53.300781 58.300781 L 53.300781 61.300781 L 47.300781 61.300781 L 47.300781 58.300781 z M 54.300781 58.300781 L 56.400391 58.300781 L 56.400391 79.300781 L 54.300781 79.300781 L 54.300781 58.300781 z M 57.400391 58.300781 L 59.800781 58.300781 L 59.800781 61.300781 L 57.400391 61.300781 L 57.400391 58.300781 z M 60.800781 58.300781 L 62.900391 58.300781 L 62.900391 79.300781 L 60.800781 79.300781 L 60.800781 58.300781 z M 63.900391 58.300781 L 66.300781 58.300781 L 66.300781 61.300781 L 63.900391 61.300781 L 63.900391 58.300781 z M 67.300781 58.300781 L 69.400391 58.300781 L 69.400391 79.300781 L 68.300781 79.300781 L 67.300781 79.300781 L 67.300781 70.800781 L 67.300781 66.800781 L 67.300781 61.800781 L 67.300781 58.300781 z M 26.400391 59.300781 C 25.300391 59.300781 24.400391 60.200781 24.400391 61.300781 C 24.400391 62.400781 25.300391 63.300781 26.400391 63.300781 C 27.500391 63.300781 28.400391 62.400781 28.400391 61.300781 C 28.400391 60.200781 27.500391 59.300781 26.400391 59.300781 z M 74.400391 59.300781 C 73.300391 59.300781 72.400391 60.200781 72.400391 61.300781 C 72.400391 62.400781 73.300391 63.300781 74.400391 63.300781 C 75.500391 63.300781 76.400391 62.400781 76.400391 61.300781 C 76.400391 60.200781 75.500391 59.300781 74.400391 59.300781 z M 26.400391 60.300781 C 27.000391 60.300781 27.400391 60.700781 27.400391 61.300781 C 27.400391 61.900781 27.000391 62.300781 26.400391 62.300781 C 25.800391 62.300781 25.400391 61.900781 25.400391 61.300781 C 25.400391 60.700781 25.800391 60.300781 26.400391 60.300781 z M 74.400391 60.300781 C 75.000391 60.300781 75.400391 60.700781 75.400391 61.300781 C 75.400391 61.900781 75.000391 62.300781 74.400391 62.300781 C 73.800391 62.300781 73.400391 61.900781 73.400391 61.300781 C 73.400391 60.700781 73.800391 60.300781 74.400391 60.300781 z M 34.400391 62.300781 L 36.699219 62.300781 L 36.699219 66.300781 L 34.400391 66.300781 L 34.400391 62.300781 z M 40.800781 62.300781 L 43.099609 62.300781 L 43.099609 66.300781 L 40.800781 66.300781 L 40.800781 62.300781 z M 47.300781 62.300781 L 53.300781 62.300781 L 53.300781 66.300781 L 47.300781 66.300781 L 47.300781 62.300781 z M 57.400391 62.300781 L 59.800781 62.300781 L 59.800781 66.300781 L 57.400391 66.300781 L 57.400391 62.300781 z M 63.900391 62.300781 L 66.300781 62.300781 L 66.300781 66.300781 L 63.900391 66.300781 L 63.900391 62.300781 z M 23.800781 65.300781 C 23.500781 65.300781 23.300781 65.500781 23.300781 65.800781 C 23.300781 66.100781 23.500781 66.300781 23.800781 66.300781 L 24.300781 66.300781 L 24.300781 71.800781 C 24.300781 72.100781 24.500781 72.300781 24.800781 72.300781 L 27.800781 72.300781 C 28.100781 72.300781 28.300781 72.100781 28.300781 71.800781 L 28.300781 66.300781 L 28.800781 66.300781 C 29.100781 66.300781 29.300781 66.100781 29.300781 65.800781 C 29.300781 65.500781 29.100781 65.300781 28.800781 65.300781 L 27.800781 65.300781 L 24.800781 65.300781 L 23.800781 65.300781 z M 71.800781 65.300781 C 71.500781 65.300781 71.300781 65.500781 71.300781 65.800781 C 71.300781 66.100781 71.500781 66.300781 71.800781 66.300781 L 72.300781 66.300781 L 72.300781 71.800781 C 72.300781 72.100781 72.500781 72.300781 72.800781 72.300781 L 75.800781 72.300781 C 76.100781 72.300781 76.300781 72.100781 76.300781 71.800781 L 76.300781 66.300781 L 76.800781 66.300781 C 77.100781 66.300781 77.300781 66.100781 77.300781 65.800781 C 77.300781 65.500781 77.100781 65.300781 76.800781 65.300781 L 75.800781 65.300781 L 72.800781 65.300781 L 71.800781 65.300781 z M 25.300781 66.300781 L 27.300781 66.300781 L 27.300781 71.300781 L 25.300781 71.300781 L 25.300781 66.300781 z M 73.300781 66.300781 L 75.300781 66.300781 L 75.300781 71.300781 L 73.300781 71.300781 L 73.300781 66.300781 z M 34.400391 67.300781 L 36.699219 67.300781 L 36.699219 70.300781 L 34.400391 70.300781 L 34.400391 67.300781 z M 40.800781 67.300781 L 43.099609 67.300781 L 43.099609 70.300781 L 40.800781 70.300781 L 40.800781 67.300781 z M 47.300781 67.300781 L 53.300781 67.300781 L 53.300781 70.300781 L 47.300781 70.300781 L 47.300781 67.300781 z M 57.400391 67.300781 L 59.800781 67.300781 L 59.800781 70.300781 L 57.400391 70.300781 L 57.400391 67.300781 z M 63.900391 67.300781 L 66.300781 67.300781 L 66.300781 70.300781 L 63.900391 70.300781 L 63.900391 67.300781 z M 34.400391 71.300781 L 36.699219 71.300781 L 36.699219 79.300781 L 34.400391 79.300781 L 34.400391 71.300781 z M 40.800781 71.300781 L 43.099609 71.300781 L 43.099609 79.300781 L 40.800781 79.300781 L 40.800781 71.300781 z M 47.300781 71.300781 L 53.300781 71.300781 L 53.300781 79.300781 L 47.300781 79.300781 L 47.300781 71.300781 z M 57.400391 71.300781 L 59.800781 71.300781 L 59.800781 79.300781 L 57.400391 79.300781 L 57.400391 71.300781 z M 63.900391 71.300781 L 66.300781 71.300781 L 66.300781 79.300781 L 63.900391 79.300781 L 63.900391 71.300781 z M 24.800781 74.300781 C 24.500781 74.300781 24.300781 74.500781 24.300781 74.800781 L 24.300781 76.800781 C 24.300781 77.100781 24.500781 77.300781 24.800781 77.300781 L 27.800781 77.300781 C 28.100781 77.300781 28.300781 77.100781 28.300781 76.800781 L 28.300781 74.800781 C 28.300781 74.600781 28.100781 74.300781 27.800781 74.300781 L 24.800781 74.300781 z M 72.800781 74.300781 C 72.500781 74.300781 72.300781 74.500781 72.300781 74.800781 L 72.300781 76.800781 C 72.300781 77.100781 72.500781 77.300781 72.800781 77.300781 L 75.800781 77.300781 C 76.100781 77.300781 76.300781 77.100781 76.300781 76.800781 L 76.300781 74.800781 C 76.300781 74.600781 76.100781 74.300781 75.800781 74.300781 L 72.800781 74.300781 z M 25.300781 75.300781 L 27.300781 75.300781 L 27.300781 76.300781 L 25.300781 76.300781 L 25.300781 75.300781 z M 73.300781 75.300781 L 75.300781 75.300781 L 75.300781 76.300781 L 73.300781 76.300781 L 73.300781 75.300781 z "/></svg>